Coordinates
version=1
nRows=5
nColumns=40
inDegrees=yes

Units are S.I. units (second, meters, Newtons, ...)
Angles are in degrees.

endheader
time	pelvis_tilt	pelvis_list	pelvis_rotation	pelvis_tx	pelvis_ty	pelvis_tz	hip_flexion_r	hip_adduction_r	hip_rotation_r	knee_angle_r	knee_angle_r_beta	ankle_angle_r	subtalar_angle_r	mtp_angle_r	hip_flexion_l	hip_adduction_l	hip_rotation_l	knee_angle_l	knee_angle_l_beta	ankle_angle_l	subtalar_angle_l	mtp_angle_l	lumbar_extension	lumbar_bending	lumbar_rotation	arm_flex_r	arm_add_r	arm_rot_r	elbow_flex_r	pro_sup_r	wrist_flex_r	wrist_dev_r	arm_flex_l	arm_add_l	arm_rot_l	elbow_flex_l	pro_sup_l	wrist_flex_l	wrist_dev_l
      4.98000000	     -5.40846643	     -3.98313151	    -11.64009973	      1.07143421	      0.93058904	      0.42624051	     23.21540405	     -1.79778278	     -4.99538466	     20.64572401	     20.64572401	      5.51670358	      3.85202448	     -1.76481228	     12.14861585	     -4.46233511	    -13.95916537	     21.09390159	     21.09390159	     15.80207278	    -15.97094200	      2.76592205	     -9.52926801	      5.44397605	      2.33494796	    -17.87624477	    -12.26574339	     -8.13913096	     29.12714948	     46.33045872	      0.00000000	      0.00000000	     36.92940525	    -23.79497164	      2.28479505	     61.84508195	     47.14016124	      0.00000000	      0.00000000
      5.00357143	     -5.43061305	     -3.74664265	    -12.14888709	      1.07108040	      0.93017624	      0.42962002	     23.04817809	     -1.69030760	     -5.74032314	     19.21057410	     19.21057410	      6.52759896	      6.60328836	      3.45819723	     11.55652022	     -4.41097466	    -14.62368681	     20.61574576	     20.61574576	     15.30408571	    -16.02225999	      1.11397828	     -9.50209419	      5.23687318	      1.99978510	    -18.38533297	    -12.46998368	     -8.86124997	     31.02301709	     46.27912115	      0.00000000	      0.00000000	     36.81671208	    -23.97279993	     -0.54401458	     64.37457506	     47.41144499	      0.00000000	      0.00000000
      5.02714286	     -5.37643278	     -3.54453168	    -12.47312752	      1.07116578	      0.92985944	      0.43322804	     22.53952897	     -1.45384818	     -5.88044730	     17.76808101	     17.76808101	      6.02130303	      7.54689065	      4.10124008	     10.97298259	     -4.36615199	    -14.99344141	     20.37720439	     20.37720439	     15.50680856	    -15.92400389	      0.98022182	     -9.34447724	      5.05242037	      2.10440210	    -18.28206659	    -12.54239113	     -8.85784373	     31.01895791	     46.27683414	      0.00000000	      0.00000000	     37.49982006	    -23.92913004	     -0.84595149	     64.97763942	     47.45188049	      0.00000000	      0.00000000
      5.05071429	     -5.34934077	     -3.32044276	    -12.66223447	      1.07151426	      0.92937091	      0.43685562	     22.27752322	     -1.32821654	     -5.89745476	     17.23396009	     17.23396009	      5.75557138	      7.92942023	      4.24599796	     10.48703290	     -4.29992360	    -15.24378861	     20.25466145	     20.25466145	     15.70119762	    -15.83875631	      0.86107221	     -9.15236622	      4.89810127	      2.10267999	    -18.09033717	    -12.67113050	     -8.89880202	     31.10070658	     46.27639291	      0.00000000	      0.00000000	     38.03893319	    -23.86817903	     -1.14383190	     65.49775882	     47.48748278	      0.00000000	      0.00000000
      5.07428571	     -5.37273421	     -3.19086491	    -12.74049130	      1.07224030	      0.92879498	      0.44073773	     22.09167042	     -1.15624962	     -5.92172195	     17.24594347	     17.24594347	      5.82332138	      7.93610610	      4.17931009	     10.07116434	     -4.34313765	    -15.29279253	     20.22263726	     20.22263726	     15.96723166	    -15.89193220	      0.77623988	     -8.80886901	      4.87915160	      2.06697460	    -17.92498368	    -12.85522171	     -8.93588691	     31.15930824	     46.27792099	      0.00000000	      0.00000000	     38.27880459	    -23.78659148	     -1.20996131	     65.69236188	     47.49744269	      0.00000000	      0.00000000
